<mxfile host="app.diagrams.net" modified="2024-05-24T06:44:41.472Z" agent="Mozilla/5.0 (Windows NT 10.0; Win64; x64) AppleWebKit/537.36 (KHTML, like Gecko) Chrome/125.0.0.0 Safari/537.36" etag="cfPcqJlqRKndBtni4Ov4" version="24.4.6" type="device">
  <diagram name="Page-1" id="12hEH8jjg-TufrVYopuD">
    <mxGraphModel dx="2438" dy="2004" grid="1" gridSize="10" guides="1" tooltips="1" connect="1" arrows="1" fold="1" page="1" pageScale="1" pageWidth="850" pageHeight="1100" background="#ffffff" math="0" shadow="0">
      <root>
        <mxCell id="0" />
        <mxCell id="1" parent="0" />
        <mxCell id="6QipHt0BfIRYhcp03Fun-10" value="Users" style="rounded=1;whiteSpace=wrap;html=1;" parent="1" vertex="1">
          <mxGeometry x="630" y="-210" width="120" height="60" as="geometry" />
        </mxCell>
        <mxCell id="6QipHt0BfIRYhcp03Fun-11" value="&lt;b&gt;User Id(INT)(PK)&lt;/b&gt;" style="ellipse;whiteSpace=wrap;html=1;" parent="1" vertex="1">
          <mxGeometry x="790" y="-300" width="120" height="80" as="geometry" />
        </mxCell>
        <mxCell id="6QipHt0BfIRYhcp03Fun-12" value="User Name(STRING NOT NULL)" style="ellipse;whiteSpace=wrap;html=1;" parent="1" vertex="1">
          <mxGeometry x="890" y="-240" width="120" height="80" as="geometry" />
        </mxCell>
        <mxCell id="6QipHt0BfIRYhcp03Fun-13" value="User Phone(STRING NOT NULL UNIQUE)" style="ellipse;whiteSpace=wrap;html=1;" parent="1" vertex="1">
          <mxGeometry x="1100" y="-80" width="120" height="80" as="geometry" />
        </mxCell>
        <mxCell id="6QipHt0BfIRYhcp03Fun-14" value="User Email(STRING NOT NULL UNIQUE)" style="ellipse;whiteSpace=wrap;html=1;" parent="1" vertex="1">
          <mxGeometry x="1000" width="120" height="80" as="geometry" />
        </mxCell>
        <mxCell id="6QipHt0BfIRYhcp03Fun-15" value="" style="endArrow=classic;html=1;rounded=0;exitX=0.029;exitY=0.615;exitDx=0;exitDy=0;exitPerimeter=0;" parent="1" source="6QipHt0BfIRYhcp03Fun-11" target="6QipHt0BfIRYhcp03Fun-10" edge="1">
          <mxGeometry width="50" height="50" relative="1" as="geometry">
            <mxPoint x="660" y="290" as="sourcePoint" />
            <mxPoint x="710" y="240" as="targetPoint" />
          </mxGeometry>
        </mxCell>
        <mxCell id="6QipHt0BfIRYhcp03Fun-16" value="" style="endArrow=classic;html=1;rounded=0;exitX=0;exitY=0.5;exitDx=0;exitDy=0;" parent="1" source="6QipHt0BfIRYhcp03Fun-12" target="6QipHt0BfIRYhcp03Fun-10" edge="1">
          <mxGeometry width="50" height="50" relative="1" as="geometry">
            <mxPoint x="660" y="290" as="sourcePoint" />
            <mxPoint x="710" y="240" as="targetPoint" />
          </mxGeometry>
        </mxCell>
        <mxCell id="6QipHt0BfIRYhcp03Fun-17" value="" style="endArrow=classic;html=1;rounded=0;exitX=0;exitY=0.5;exitDx=0;exitDy=0;entryX=1;entryY=0.75;entryDx=0;entryDy=0;" parent="1" source="6QipHt0BfIRYhcp03Fun-13" target="6QipHt0BfIRYhcp03Fun-10" edge="1">
          <mxGeometry width="50" height="50" relative="1" as="geometry">
            <mxPoint x="660" y="290" as="sourcePoint" />
            <mxPoint x="710" y="240" as="targetPoint" />
          </mxGeometry>
        </mxCell>
        <mxCell id="6QipHt0BfIRYhcp03Fun-18" value="" style="endArrow=classic;html=1;rounded=0;exitX=0.394;exitY=0.025;exitDx=0;exitDy=0;exitPerimeter=0;entryX=0.864;entryY=1.071;entryDx=0;entryDy=0;entryPerimeter=0;" parent="1" source="6QipHt0BfIRYhcp03Fun-14" target="6QipHt0BfIRYhcp03Fun-10" edge="1">
          <mxGeometry width="50" height="50" relative="1" as="geometry">
            <mxPoint x="660" y="290" as="sourcePoint" />
            <mxPoint x="710" y="240" as="targetPoint" />
          </mxGeometry>
        </mxCell>
        <mxCell id="6QipHt0BfIRYhcp03Fun-78" value="Items" style="rounded=1;whiteSpace=wrap;html=1;" parent="1" vertex="1">
          <mxGeometry x="200" y="390" width="120" height="60" as="geometry" />
        </mxCell>
        <mxCell id="6QipHt0BfIRYhcp03Fun-87" value="&lt;b&gt;Item Id(INT)(PK)&lt;/b&gt;" style="ellipse;whiteSpace=wrap;html=1;" parent="1" vertex="1">
          <mxGeometry x="-320" y="290" width="120" height="80" as="geometry" />
        </mxCell>
        <mxCell id="6QipHt0BfIRYhcp03Fun-88" value="Item Name(STRING NOT NULL UNIQUE)" style="ellipse;whiteSpace=wrap;html=1;" parent="1" vertex="1">
          <mxGeometry x="-330" y="410" width="120" height="80" as="geometry" />
        </mxCell>
        <mxCell id="6QipHt0BfIRYhcp03Fun-89" value="Item Description(STRING)" style="ellipse;whiteSpace=wrap;html=1;" parent="1" vertex="1">
          <mxGeometry x="-240" y="600" width="120" height="80" as="geometry" />
        </mxCell>
        <mxCell id="6QipHt0BfIRYhcp03Fun-90" value="&lt;b&gt;Type Id(INT)(FK)&lt;/b&gt;" style="ellipse;whiteSpace=wrap;html=1;" parent="1" vertex="1">
          <mxGeometry x="-320" y="510" width="120" height="80" as="geometry" />
        </mxCell>
        <mxCell id="6QipHt0BfIRYhcp03Fun-91" value="Item Type" style="rounded=1;whiteSpace=wrap;html=1;" parent="1" vertex="1">
          <mxGeometry x="190" y="660" width="120" height="60" as="geometry" />
        </mxCell>
        <mxCell id="6QipHt0BfIRYhcp03Fun-92" value="&lt;b&gt;Type Id(INT)(PK)&lt;/b&gt;" style="ellipse;whiteSpace=wrap;html=1;" parent="1" vertex="1">
          <mxGeometry x="170" y="830" width="120" height="80" as="geometry" />
        </mxCell>
        <mxCell id="6QipHt0BfIRYhcp03Fun-93" value="Type Name(STRING NOT NULL)" style="ellipse;whiteSpace=wrap;html=1;" parent="1" vertex="1">
          <mxGeometry x="30" y="790" width="120" height="80" as="geometry" />
        </mxCell>
        <mxCell id="6QipHt0BfIRYhcp03Fun-94" value="IsAvailable (BOOL)" style="ellipse;whiteSpace=wrap;html=1;" parent="1" vertex="1">
          <mxGeometry x="-180" y="680" width="120" height="80" as="geometry" />
        </mxCell>
        <mxCell id="6QipHt0BfIRYhcp03Fun-95" value="" style="endArrow=classic;html=1;rounded=0;exitX=1;exitY=1;exitDx=0;exitDy=0;entryX=0;entryY=0.25;entryDx=0;entryDy=0;" parent="1" source="6QipHt0BfIRYhcp03Fun-87" target="6QipHt0BfIRYhcp03Fun-78" edge="1">
          <mxGeometry width="50" height="50" relative="1" as="geometry">
            <mxPoint x="380" y="650" as="sourcePoint" />
            <mxPoint x="430" y="600" as="targetPoint" />
          </mxGeometry>
        </mxCell>
        <mxCell id="6QipHt0BfIRYhcp03Fun-96" value="" style="endArrow=classic;html=1;rounded=0;exitX=1;exitY=0.5;exitDx=0;exitDy=0;entryX=0;entryY=0.75;entryDx=0;entryDy=0;" parent="1" source="6QipHt0BfIRYhcp03Fun-90" target="6QipHt0BfIRYhcp03Fun-78" edge="1">
          <mxGeometry width="50" height="50" relative="1" as="geometry">
            <mxPoint x="380" y="650" as="sourcePoint" />
            <mxPoint x="430" y="600" as="targetPoint" />
          </mxGeometry>
        </mxCell>
        <mxCell id="6QipHt0BfIRYhcp03Fun-97" value="" style="endArrow=classic;html=1;rounded=0;entryX=0;entryY=0.5;entryDx=0;entryDy=0;entryPerimeter=0;" parent="1" source="6QipHt0BfIRYhcp03Fun-88" target="6QipHt0BfIRYhcp03Fun-78" edge="1">
          <mxGeometry width="50" height="50" relative="1" as="geometry">
            <mxPoint x="380" y="650" as="sourcePoint" />
            <mxPoint x="430" y="600" as="targetPoint" />
          </mxGeometry>
        </mxCell>
        <mxCell id="6QipHt0BfIRYhcp03Fun-98" value="" style="endArrow=classic;html=1;rounded=0;" parent="1" source="6QipHt0BfIRYhcp03Fun-89" target="6QipHt0BfIRYhcp03Fun-78" edge="1">
          <mxGeometry width="50" height="50" relative="1" as="geometry">
            <mxPoint x="380" y="650" as="sourcePoint" />
            <mxPoint x="430" y="600" as="targetPoint" />
          </mxGeometry>
        </mxCell>
        <mxCell id="6QipHt0BfIRYhcp03Fun-99" value="" style="endArrow=classic;html=1;rounded=0;exitX=1;exitY=0;exitDx=0;exitDy=0;entryX=0.25;entryY=1;entryDx=0;entryDy=0;" parent="1" source="6QipHt0BfIRYhcp03Fun-94" target="6QipHt0BfIRYhcp03Fun-78" edge="1">
          <mxGeometry width="50" height="50" relative="1" as="geometry">
            <mxPoint x="380" y="650" as="sourcePoint" />
            <mxPoint x="430" y="600" as="targetPoint" />
          </mxGeometry>
        </mxCell>
        <mxCell id="6QipHt0BfIRYhcp03Fun-100" value="" style="endArrow=classic;html=1;rounded=0;exitX=1;exitY=0;exitDx=0;exitDy=0;entryX=0;entryY=1;entryDx=0;entryDy=0;" parent="1" source="6QipHt0BfIRYhcp03Fun-93" target="6QipHt0BfIRYhcp03Fun-91" edge="1">
          <mxGeometry width="50" height="50" relative="1" as="geometry">
            <mxPoint x="380" y="650" as="sourcePoint" />
            <mxPoint x="430" y="600" as="targetPoint" />
          </mxGeometry>
        </mxCell>
        <mxCell id="6QipHt0BfIRYhcp03Fun-101" value="" style="endArrow=classic;html=1;rounded=0;exitX=0.401;exitY=0.046;exitDx=0;exitDy=0;exitPerimeter=0;entryX=0.5;entryY=1;entryDx=0;entryDy=0;" parent="1" source="6QipHt0BfIRYhcp03Fun-92" target="6QipHt0BfIRYhcp03Fun-91" edge="1">
          <mxGeometry width="50" height="50" relative="1" as="geometry">
            <mxPoint x="380" y="650" as="sourcePoint" />
            <mxPoint x="430" y="600" as="targetPoint" />
          </mxGeometry>
        </mxCell>
        <mxCell id="6QipHt0BfIRYhcp03Fun-102" value="HAS" style="rhombus;whiteSpace=wrap;html=1;" parent="1" vertex="1">
          <mxGeometry x="220" y="520" width="80" height="80" as="geometry" />
        </mxCell>
        <mxCell id="6QipHt0BfIRYhcp03Fun-103" value="" style="endArrow=classic;html=1;rounded=0;exitX=0.5;exitY=1;exitDx=0;exitDy=0;entryX=0.5;entryY=0;entryDx=0;entryDy=0;" parent="1" source="6QipHt0BfIRYhcp03Fun-78" target="6QipHt0BfIRYhcp03Fun-102" edge="1">
          <mxGeometry width="50" height="50" relative="1" as="geometry">
            <mxPoint x="380" y="650" as="sourcePoint" />
            <mxPoint x="430" y="600" as="targetPoint" />
          </mxGeometry>
        </mxCell>
        <mxCell id="6QipHt0BfIRYhcp03Fun-104" value="" style="endArrow=classic;html=1;rounded=0;exitX=0.5;exitY=1;exitDx=0;exitDy=0;entryX=0.5;entryY=0;entryDx=0;entryDy=0;" parent="1" source="6QipHt0BfIRYhcp03Fun-102" target="6QipHt0BfIRYhcp03Fun-91" edge="1">
          <mxGeometry width="50" height="50" relative="1" as="geometry">
            <mxPoint x="380" y="810" as="sourcePoint" />
            <mxPoint x="430" y="760" as="targetPoint" />
          </mxGeometry>
        </mxCell>
        <mxCell id="6QipHt0BfIRYhcp03Fun-105" value="&lt;b&gt;1&lt;/b&gt;" style="text;html=1;align=center;verticalAlign=middle;whiteSpace=wrap;rounded=0;" parent="1" vertex="1">
          <mxGeometry x="240" y="630" width="60" height="30" as="geometry" />
        </mxCell>
        <mxCell id="6QipHt0BfIRYhcp03Fun-106" value="&lt;b&gt;N&lt;/b&gt;" style="text;html=1;align=center;verticalAlign=middle;whiteSpace=wrap;rounded=0;" parent="1" vertex="1">
          <mxGeometry x="250" y="460" width="60" height="30" as="geometry" />
        </mxCell>
        <mxCell id="6QipHt0BfIRYhcp03Fun-107" value="Orders" style="rounded=1;whiteSpace=wrap;html=1;" parent="1" vertex="1">
          <mxGeometry x="390" y="-490" width="120" height="60" as="geometry" />
        </mxCell>
        <mxCell id="6QipHt0BfIRYhcp03Fun-108" value="&lt;b&gt;Order ID(INT)(PK)&lt;/b&gt;" style="ellipse;whiteSpace=wrap;html=1;" parent="1" vertex="1">
          <mxGeometry x="260" y="-610" width="120" height="80" as="geometry" />
        </mxCell>
        <mxCell id="6QipHt0BfIRYhcp03Fun-109" value="&lt;b&gt;User ID(INT)(FK)&lt;/b&gt;" style="ellipse;whiteSpace=wrap;html=1;" parent="1" vertex="1">
          <mxGeometry x="400" y="-610" width="120" height="80" as="geometry" />
        </mxCell>
        <mxCell id="6QipHt0BfIRYhcp03Fun-110" value="Order Status(String)" style="ellipse;whiteSpace=wrap;html=1;" parent="1" vertex="1">
          <mxGeometry x="540" y="-610" width="120" height="80" as="geometry" />
        </mxCell>
        <mxCell id="6QipHt0BfIRYhcp03Fun-111" value="&lt;b&gt;&quot;Open&quot;&lt;/b&gt;" style="ellipse;whiteSpace=wrap;html=1;" parent="1" vertex="1">
          <mxGeometry x="560" y="-750" width="120" height="80" as="geometry" />
        </mxCell>
        <mxCell id="6QipHt0BfIRYhcp03Fun-112" value="&lt;b&gt;&quot;Closed&quot;&lt;/b&gt;" style="ellipse;whiteSpace=wrap;html=1;" parent="1" vertex="1">
          <mxGeometry x="700" y="-740" width="120" height="80" as="geometry" />
        </mxCell>
        <mxCell id="6QipHt0BfIRYhcp03Fun-113" value="&lt;b&gt;&quot;CancelledByUser&quot;&lt;/b&gt;" style="ellipse;whiteSpace=wrap;html=1;" parent="1" vertex="1">
          <mxGeometry x="760" y="-660" width="120" height="80" as="geometry" />
        </mxCell>
        <mxCell id="6QipHt0BfIRYhcp03Fun-114" value="&lt;b&gt;&quot;CancelledByStore&quot;&lt;/b&gt;" style="ellipse;whiteSpace=wrap;html=1;" parent="1" vertex="1">
          <mxGeometry x="730" y="-570" width="160" height="80" as="geometry" />
        </mxCell>
        <mxCell id="6QipHt0BfIRYhcp03Fun-116" value="Total Amount(DOUBLE)" style="ellipse;whiteSpace=wrap;html=1;" parent="1" vertex="1">
          <mxGeometry x="610" y="-520" width="120" height="80" as="geometry" />
        </mxCell>
        <mxCell id="6QipHt0BfIRYhcp03Fun-118" value="" style="endArrow=classic;html=1;rounded=0;exitX=0.669;exitY=1.018;exitDx=0;exitDy=0;exitPerimeter=0;entryX=0;entryY=0;entryDx=0;entryDy=0;" parent="1" source="6QipHt0BfIRYhcp03Fun-108" target="6QipHt0BfIRYhcp03Fun-107" edge="1">
          <mxGeometry width="50" height="50" relative="1" as="geometry">
            <mxPoint x="380" y="-430" as="sourcePoint" />
            <mxPoint x="430" y="-480" as="targetPoint" />
          </mxGeometry>
        </mxCell>
        <mxCell id="6QipHt0BfIRYhcp03Fun-119" value="" style="endArrow=classic;html=1;rounded=0;entryX=0.5;entryY=0;entryDx=0;entryDy=0;" parent="1" source="6QipHt0BfIRYhcp03Fun-109" target="6QipHt0BfIRYhcp03Fun-107" edge="1">
          <mxGeometry width="50" height="50" relative="1" as="geometry">
            <mxPoint x="380" y="-430" as="sourcePoint" />
            <mxPoint x="430" y="-480" as="targetPoint" />
          </mxGeometry>
        </mxCell>
        <mxCell id="6QipHt0BfIRYhcp03Fun-120" value="" style="endArrow=classic;html=1;rounded=0;exitX=0;exitY=1;exitDx=0;exitDy=0;entryX=0.75;entryY=0;entryDx=0;entryDy=0;" parent="1" source="6QipHt0BfIRYhcp03Fun-110" target="6QipHt0BfIRYhcp03Fun-107" edge="1">
          <mxGeometry width="50" height="50" relative="1" as="geometry">
            <mxPoint x="380" y="-430" as="sourcePoint" />
            <mxPoint x="430" y="-480" as="targetPoint" />
          </mxGeometry>
        </mxCell>
        <mxCell id="6QipHt0BfIRYhcp03Fun-121" value="" style="endArrow=classic;html=1;rounded=0;exitX=0;exitY=1;exitDx=0;exitDy=0;entryX=1;entryY=0.75;entryDx=0;entryDy=0;" parent="1" source="6QipHt0BfIRYhcp03Fun-116" target="6QipHt0BfIRYhcp03Fun-107" edge="1">
          <mxGeometry width="50" height="50" relative="1" as="geometry">
            <mxPoint x="380" y="-430" as="sourcePoint" />
            <mxPoint x="430" y="-480" as="targetPoint" />
          </mxGeometry>
        </mxCell>
        <mxCell id="6QipHt0BfIRYhcp03Fun-122" value="" style="endArrow=classic;html=1;rounded=0;exitX=0.5;exitY=0;exitDx=0;exitDy=0;entryX=0.373;entryY=1.018;entryDx=0;entryDy=0;entryPerimeter=0;" parent="1" source="6QipHt0BfIRYhcp03Fun-110" target="6QipHt0BfIRYhcp03Fun-111" edge="1">
          <mxGeometry width="50" height="50" relative="1" as="geometry">
            <mxPoint x="380" y="-430" as="sourcePoint" />
            <mxPoint x="430" y="-480" as="targetPoint" />
          </mxGeometry>
        </mxCell>
        <mxCell id="6QipHt0BfIRYhcp03Fun-123" value="" style="endArrow=classic;html=1;rounded=0;exitX=1;exitY=0;exitDx=0;exitDy=0;" parent="1" source="6QipHt0BfIRYhcp03Fun-110" target="6QipHt0BfIRYhcp03Fun-112" edge="1">
          <mxGeometry width="50" height="50" relative="1" as="geometry">
            <mxPoint x="380" y="-430" as="sourcePoint" />
            <mxPoint x="430" y="-480" as="targetPoint" />
          </mxGeometry>
        </mxCell>
        <mxCell id="6QipHt0BfIRYhcp03Fun-124" value="" style="endArrow=classic;html=1;rounded=0;exitX=1;exitY=0.5;exitDx=0;exitDy=0;entryX=0;entryY=0.5;entryDx=0;entryDy=0;" parent="1" source="6QipHt0BfIRYhcp03Fun-110" target="6QipHt0BfIRYhcp03Fun-113" edge="1">
          <mxGeometry width="50" height="50" relative="1" as="geometry">
            <mxPoint x="380" y="-430" as="sourcePoint" />
            <mxPoint x="430" y="-480" as="targetPoint" />
          </mxGeometry>
        </mxCell>
        <mxCell id="6QipHt0BfIRYhcp03Fun-125" value="" style="endArrow=classic;html=1;rounded=0;exitX=1;exitY=1;exitDx=0;exitDy=0;entryX=0;entryY=0.5;entryDx=0;entryDy=0;" parent="1" source="6QipHt0BfIRYhcp03Fun-110" target="6QipHt0BfIRYhcp03Fun-114" edge="1">
          <mxGeometry width="50" height="50" relative="1" as="geometry">
            <mxPoint x="380" y="-430" as="sourcePoint" />
            <mxPoint x="430" y="-480" as="targetPoint" />
          </mxGeometry>
        </mxCell>
        <mxCell id="6QipHt0BfIRYhcp03Fun-126" value="ORDEREDBY" style="rhombus;whiteSpace=wrap;html=1;" parent="1" vertex="1">
          <mxGeometry x="450" y="-310" width="100" height="80" as="geometry" />
        </mxCell>
        <mxCell id="6QipHt0BfIRYhcp03Fun-129" value="&lt;b&gt;N&lt;/b&gt;" style="text;html=1;align=center;verticalAlign=middle;whiteSpace=wrap;rounded=0;" parent="1" vertex="1">
          <mxGeometry x="570" y="-220" width="60" height="30" as="geometry" />
        </mxCell>
        <mxCell id="6QipHt0BfIRYhcp03Fun-133" value="&lt;b&gt;N&lt;/b&gt;" style="text;html=1;align=center;verticalAlign=middle;whiteSpace=wrap;rounded=0;" parent="1" vertex="1">
          <mxGeometry x="400" y="-410" width="60" height="30" as="geometry" />
        </mxCell>
        <mxCell id="6QipHt0BfIRYhcp03Fun-135" value="Order Items" style="rounded=1;whiteSpace=wrap;html=1;" parent="1" vertex="1">
          <mxGeometry x="-130" y="-530" width="120" height="60" as="geometry" />
        </mxCell>
        <mxCell id="6QipHt0BfIRYhcp03Fun-136" value="&lt;b&gt;Item ID(INT)(FK)&lt;/b&gt;" style="ellipse;whiteSpace=wrap;html=1;" parent="1" vertex="1">
          <mxGeometry x="-350" y="-670" width="120" height="80" as="geometry" />
        </mxCell>
        <mxCell id="6QipHt0BfIRYhcp03Fun-137" value="&lt;b&gt;Order Id(INT)(FK)&lt;/b&gt;" style="ellipse;whiteSpace=wrap;html=1;" parent="1" vertex="1">
          <mxGeometry x="-220" y="-670" width="120" height="80" as="geometry" />
        </mxCell>
        <mxCell id="6QipHt0BfIRYhcp03Fun-138" value="Qty(INT)" style="ellipse;whiteSpace=wrap;html=1;" parent="1" vertex="1">
          <mxGeometry x="-90" y="-680" width="120" height="80" as="geometry" />
        </mxCell>
        <mxCell id="6QipHt0BfIRYhcp03Fun-140" value="Price(DOUBLE)" style="ellipse;whiteSpace=wrap;html=1;" parent="1" vertex="1">
          <mxGeometry x="-50" y="670" width="120" height="80" as="geometry" />
        </mxCell>
        <mxCell id="6QipHt0BfIRYhcp03Fun-141" value="" style="endArrow=classic;html=1;rounded=0;exitX=1;exitY=0;exitDx=0;exitDy=0;entryX=0.369;entryY=0.998;entryDx=0;entryDy=0;entryPerimeter=0;" parent="1" source="6QipHt0BfIRYhcp03Fun-140" target="6QipHt0BfIRYhcp03Fun-78" edge="1">
          <mxGeometry width="50" height="50" relative="1" as="geometry">
            <mxPoint x="210" y="530" as="sourcePoint" />
            <mxPoint x="260" y="480" as="targetPoint" />
          </mxGeometry>
        </mxCell>
        <mxCell id="6QipHt0BfIRYhcp03Fun-142" value="" style="endArrow=classic;html=1;rounded=0;entryX=0;entryY=0.25;entryDx=0;entryDy=0;" parent="1" source="6QipHt0BfIRYhcp03Fun-136" target="6QipHt0BfIRYhcp03Fun-135" edge="1">
          <mxGeometry width="50" height="50" relative="1" as="geometry">
            <mxPoint x="210" y="-300" as="sourcePoint" />
            <mxPoint x="260" y="-350" as="targetPoint" />
          </mxGeometry>
        </mxCell>
        <mxCell id="6QipHt0BfIRYhcp03Fun-143" value="" style="endArrow=classic;html=1;rounded=0;exitX=0.669;exitY=1.004;exitDx=0;exitDy=0;exitPerimeter=0;entryX=0.25;entryY=0;entryDx=0;entryDy=0;" parent="1" source="6QipHt0BfIRYhcp03Fun-137" target="6QipHt0BfIRYhcp03Fun-135" edge="1">
          <mxGeometry width="50" height="50" relative="1" as="geometry">
            <mxPoint x="210" y="-300" as="sourcePoint" />
            <mxPoint x="260" y="-350" as="targetPoint" />
          </mxGeometry>
        </mxCell>
        <mxCell id="6QipHt0BfIRYhcp03Fun-144" value="" style="endArrow=classic;html=1;rounded=0;exitX=0.5;exitY=1;exitDx=0;exitDy=0;entryX=0.5;entryY=0;entryDx=0;entryDy=0;" parent="1" source="6QipHt0BfIRYhcp03Fun-138" target="6QipHt0BfIRYhcp03Fun-135" edge="1">
          <mxGeometry width="50" height="50" relative="1" as="geometry">
            <mxPoint x="210" y="-300" as="sourcePoint" />
            <mxPoint x="260" y="-350" as="targetPoint" />
          </mxGeometry>
        </mxCell>
        <mxCell id="6QipHt0BfIRYhcp03Fun-145" value="CONTAINS" style="rhombus;whiteSpace=wrap;html=1;" parent="1" vertex="1">
          <mxGeometry x="-330" y="-125" width="80" height="80" as="geometry" />
        </mxCell>
        <mxCell id="6QipHt0BfIRYhcp03Fun-146" value="" style="endArrow=classic;html=1;rounded=0;exitX=0.5;exitY=1;exitDx=0;exitDy=0;entryX=0.5;entryY=0;entryDx=0;entryDy=0;" parent="1" source="6QipHt0BfIRYhcp03Fun-135" target="6QipHt0BfIRYhcp03Fun-145" edge="1">
          <mxGeometry width="50" height="50" relative="1" as="geometry">
            <mxPoint x="380" y="100" as="sourcePoint" />
            <mxPoint x="430" y="50" as="targetPoint" />
          </mxGeometry>
        </mxCell>
        <mxCell id="6QipHt0BfIRYhcp03Fun-147" value="" style="endArrow=classic;html=1;rounded=0;exitX=0.5;exitY=1;exitDx=0;exitDy=0;entryX=0;entryY=0;entryDx=0;entryDy=0;" parent="1" source="6QipHt0BfIRYhcp03Fun-145" target="6QipHt0BfIRYhcp03Fun-78" edge="1">
          <mxGeometry width="50" height="50" relative="1" as="geometry">
            <mxPoint x="380" y="100" as="sourcePoint" />
            <mxPoint x="430" y="50" as="targetPoint" />
          </mxGeometry>
        </mxCell>
        <mxCell id="6QipHt0BfIRYhcp03Fun-149" value="&lt;b&gt;N&lt;/b&gt;" style="text;html=1;align=center;verticalAlign=middle;whiteSpace=wrap;rounded=0;" parent="1" vertex="1">
          <mxGeometry x="-80" y="-470" width="60" height="30" as="geometry" />
        </mxCell>
        <mxCell id="6QipHt0BfIRYhcp03Fun-150" value="&lt;b&gt;N&lt;/b&gt;" style="text;html=1;align=center;verticalAlign=middle;whiteSpace=wrap;rounded=0;" parent="1" vertex="1">
          <mxGeometry x="160" y="350" width="60" height="30" as="geometry" />
        </mxCell>
        <mxCell id="6QipHt0BfIRYhcp03Fun-154" value="CONTAINS" style="rhombus;whiteSpace=wrap;html=1;" parent="1" vertex="1">
          <mxGeometry x="150" y="-530" width="80" height="80" as="geometry" />
        </mxCell>
        <mxCell id="6QipHt0BfIRYhcp03Fun-157" value="" style="endArrow=classic;html=1;rounded=0;exitX=1;exitY=0.5;exitDx=0;exitDy=0;entryX=0;entryY=0.5;entryDx=0;entryDy=0;" parent="1" source="6QipHt0BfIRYhcp03Fun-135" target="6QipHt0BfIRYhcp03Fun-154" edge="1">
          <mxGeometry width="50" height="50" relative="1" as="geometry">
            <mxPoint x="250" y="-370" as="sourcePoint" />
            <mxPoint x="300" y="-420" as="targetPoint" />
          </mxGeometry>
        </mxCell>
        <mxCell id="6QipHt0BfIRYhcp03Fun-158" value="" style="endArrow=classic;html=1;rounded=0;exitX=1;exitY=0.5;exitDx=0;exitDy=0;entryX=0;entryY=0.5;entryDx=0;entryDy=0;" parent="1" source="6QipHt0BfIRYhcp03Fun-154" target="6QipHt0BfIRYhcp03Fun-107" edge="1">
          <mxGeometry width="50" height="50" relative="1" as="geometry">
            <mxPoint x="250" y="-370" as="sourcePoint" />
            <mxPoint x="300" y="-420" as="targetPoint" />
          </mxGeometry>
        </mxCell>
        <mxCell id="6QipHt0BfIRYhcp03Fun-163" value="" style="endArrow=classic;html=1;rounded=0;exitX=0.5;exitY=1;exitDx=0;exitDy=0;entryX=0.5;entryY=0;entryDx=0;entryDy=0;" parent="1" source="6QipHt0BfIRYhcp03Fun-107" target="6QipHt0BfIRYhcp03Fun-126" edge="1">
          <mxGeometry width="50" height="50" relative="1" as="geometry">
            <mxPoint x="450" y="-220" as="sourcePoint" />
            <mxPoint x="500" y="-270" as="targetPoint" />
          </mxGeometry>
        </mxCell>
        <mxCell id="6QipHt0BfIRYhcp03Fun-164" value="" style="endArrow=classic;html=1;rounded=0;exitX=0.5;exitY=1;exitDx=0;exitDy=0;entryX=0;entryY=0.5;entryDx=0;entryDy=0;" parent="1" source="6QipHt0BfIRYhcp03Fun-126" target="6QipHt0BfIRYhcp03Fun-10" edge="1">
          <mxGeometry width="50" height="50" relative="1" as="geometry">
            <mxPoint x="450" y="-50" as="sourcePoint" />
            <mxPoint x="500" y="-100" as="targetPoint" />
          </mxGeometry>
        </mxCell>
        <mxCell id="HU2oaPJs9UMQw_kld2Hj-10" value="Authentication" style="rounded=1;whiteSpace=wrap;html=1;" parent="1" vertex="1">
          <mxGeometry x="280" y="30" width="120" height="60" as="geometry" />
        </mxCell>
        <mxCell id="HU2oaPJs9UMQw_kld2Hj-11" value="Id (INT)" style="ellipse;whiteSpace=wrap;html=1;" parent="1" vertex="1">
          <mxGeometry x="80" y="-110" width="120" height="80" as="geometry" />
        </mxCell>
        <mxCell id="HU2oaPJs9UMQw_kld2Hj-12" value="PasswordHash(BYTE ARRAY)" style="ellipse;whiteSpace=wrap;html=1;" parent="1" vertex="1">
          <mxGeometry x="350" y="-160" width="140" height="80" as="geometry" />
        </mxCell>
        <mxCell id="HU2oaPJs9UMQw_kld2Hj-13" value="PasswordHashKey (BYTE ARRAY)" style="ellipse;whiteSpace=wrap;html=1;" parent="1" vertex="1">
          <mxGeometry x="210" y="-160" width="120" height="80" as="geometry" />
        </mxCell>
        <mxCell id="HU2oaPJs9UMQw_kld2Hj-22" value="" style="endArrow=classic;html=1;rounded=0;exitX=1;exitY=1;exitDx=0;exitDy=0;entryX=0.25;entryY=0;entryDx=0;entryDy=0;" parent="1" source="HU2oaPJs9UMQw_kld2Hj-11" target="HU2oaPJs9UMQw_kld2Hj-10" edge="1">
          <mxGeometry width="50" height="50" relative="1" as="geometry">
            <mxPoint x="550" y="200" as="sourcePoint" />
            <mxPoint x="600" y="150" as="targetPoint" />
          </mxGeometry>
        </mxCell>
        <mxCell id="HU2oaPJs9UMQw_kld2Hj-23" value="" style="endArrow=classic;html=1;rounded=0;exitX=0.5;exitY=1;exitDx=0;exitDy=0;entryX=1;entryY=0.25;entryDx=0;entryDy=0;" parent="1" source="HU2oaPJs9UMQw_kld2Hj-12" target="HU2oaPJs9UMQw_kld2Hj-10" edge="1">
          <mxGeometry width="50" height="50" relative="1" as="geometry">
            <mxPoint x="550" y="200" as="sourcePoint" />
            <mxPoint x="600" y="150" as="targetPoint" />
          </mxGeometry>
        </mxCell>
        <mxCell id="HU2oaPJs9UMQw_kld2Hj-24" value="" style="endArrow=classic;html=1;rounded=0;exitX=0.5;exitY=1;exitDx=0;exitDy=0;" parent="1" source="HU2oaPJs9UMQw_kld2Hj-13" target="HU2oaPJs9UMQw_kld2Hj-10" edge="1">
          <mxGeometry width="50" height="50" relative="1" as="geometry">
            <mxPoint x="550" y="200" as="sourcePoint" />
            <mxPoint x="600" y="150" as="targetPoint" />
          </mxGeometry>
        </mxCell>
        <mxCell id="HU2oaPJs9UMQw_kld2Hj-25" value="HAS" style="rhombus;whiteSpace=wrap;html=1;" parent="1" vertex="1">
          <mxGeometry x="520" y="50" width="80" height="80" as="geometry" />
        </mxCell>
        <mxCell id="HU2oaPJs9UMQw_kld2Hj-26" value="" style="endArrow=classic;html=1;rounded=0;exitX=1;exitY=1;exitDx=0;exitDy=0;entryX=0;entryY=0.5;entryDx=0;entryDy=0;" parent="1" source="HU2oaPJs9UMQw_kld2Hj-10" target="HU2oaPJs9UMQw_kld2Hj-25" edge="1">
          <mxGeometry width="50" height="50" relative="1" as="geometry">
            <mxPoint x="550" y="200" as="sourcePoint" />
            <mxPoint x="600" y="150" as="targetPoint" />
          </mxGeometry>
        </mxCell>
        <mxCell id="HU2oaPJs9UMQw_kld2Hj-27" value="" style="endArrow=classic;html=1;rounded=0;exitX=0.5;exitY=0;exitDx=0;exitDy=0;entryX=0.25;entryY=1;entryDx=0;entryDy=0;" parent="1" source="HU2oaPJs9UMQw_kld2Hj-25" target="6QipHt0BfIRYhcp03Fun-10" edge="1">
          <mxGeometry width="50" height="50" relative="1" as="geometry">
            <mxPoint x="550" y="200" as="sourcePoint" />
            <mxPoint x="600" y="150" as="targetPoint" />
          </mxGeometry>
        </mxCell>
        <mxCell id="HU2oaPJs9UMQw_kld2Hj-30" value="&lt;b&gt;1&lt;/b&gt;" style="text;html=1;align=center;verticalAlign=middle;whiteSpace=wrap;rounded=0;" parent="1" vertex="1">
          <mxGeometry x="390" y="60" width="60" height="30" as="geometry" />
        </mxCell>
        <mxCell id="HU2oaPJs9UMQw_kld2Hj-31" value="&lt;b&gt;1&lt;/b&gt;" style="text;html=1;align=center;verticalAlign=middle;whiteSpace=wrap;rounded=0;" parent="1" vertex="1">
          <mxGeometry x="580" y="-135" width="60" height="30" as="geometry" />
        </mxCell>
        <mxCell id="HU2oaPJs9UMQw_kld2Hj-34" value="State" style="ellipse;whiteSpace=wrap;html=1;" parent="1" vertex="1">
          <mxGeometry x="1060" y="-175" width="120" height="80" as="geometry" />
        </mxCell>
        <mxCell id="HU2oaPJs9UMQw_kld2Hj-35" value="&lt;b&gt;&quot;Active&quot;&lt;/b&gt;" style="ellipse;whiteSpace=wrap;html=1;" parent="1" vertex="1">
          <mxGeometry x="1240" y="-300" width="120" height="80" as="geometry" />
        </mxCell>
        <mxCell id="HU2oaPJs9UMQw_kld2Hj-36" value="&lt;b&gt;&quot;Disabled&quot;&lt;/b&gt;" style="ellipse;whiteSpace=wrap;html=1;" parent="1" vertex="1">
          <mxGeometry x="1320" y="-150" width="120" height="80" as="geometry" />
        </mxCell>
        <mxCell id="HU2oaPJs9UMQw_kld2Hj-37" value="" style="endArrow=classic;html=1;rounded=0;exitX=0;exitY=0.5;exitDx=0;exitDy=0;entryX=1;entryY=0.75;entryDx=0;entryDy=0;" parent="1" source="HU2oaPJs9UMQw_kld2Hj-34" target="6QipHt0BfIRYhcp03Fun-10" edge="1">
          <mxGeometry width="50" height="50" relative="1" as="geometry">
            <mxPoint x="960" y="10" as="sourcePoint" />
            <mxPoint x="1010" y="-40" as="targetPoint" />
          </mxGeometry>
        </mxCell>
        <mxCell id="HU2oaPJs9UMQw_kld2Hj-38" value="" style="endArrow=classic;html=1;rounded=0;exitX=0;exitY=1;exitDx=0;exitDy=0;" parent="1" source="HU2oaPJs9UMQw_kld2Hj-35" target="HU2oaPJs9UMQw_kld2Hj-34" edge="1">
          <mxGeometry width="50" height="50" relative="1" as="geometry">
            <mxPoint x="960" y="10" as="sourcePoint" />
            <mxPoint x="1010" y="-40" as="targetPoint" />
          </mxGeometry>
        </mxCell>
        <mxCell id="HU2oaPJs9UMQw_kld2Hj-39" value="" style="endArrow=classic;html=1;rounded=0;entryX=1;entryY=0.5;entryDx=0;entryDy=0;" parent="1" source="HU2oaPJs9UMQw_kld2Hj-36" target="HU2oaPJs9UMQw_kld2Hj-34" edge="1">
          <mxGeometry width="50" height="50" relative="1" as="geometry">
            <mxPoint x="960" y="10" as="sourcePoint" />
            <mxPoint x="1010" y="-40" as="targetPoint" />
          </mxGeometry>
        </mxCell>
        <mxCell id="HU2oaPJs9UMQw_kld2Hj-49" value="OrderedOn(DATETIME)" style="ellipse;whiteSpace=wrap;html=1;" parent="1" vertex="1">
          <mxGeometry x="560" y="-420" width="190" height="80" as="geometry" />
        </mxCell>
        <mxCell id="HU2oaPJs9UMQw_kld2Hj-50" value="" style="endArrow=classic;html=1;rounded=0;exitX=0;exitY=0.5;exitDx=0;exitDy=0;entryX=0.75;entryY=1;entryDx=0;entryDy=0;" parent="1" source="HU2oaPJs9UMQw_kld2Hj-49" target="6QipHt0BfIRYhcp03Fun-107" edge="1">
          <mxGeometry width="50" height="50" relative="1" as="geometry">
            <mxPoint x="520" y="-260" as="sourcePoint" />
            <mxPoint x="570" y="-310" as="targetPoint" />
          </mxGeometry>
        </mxCell>
        <mxCell id="HU2oaPJs9UMQw_kld2Hj-51" value="&lt;b&gt;N&lt;/b&gt;" style="text;html=1;align=center;verticalAlign=middle;whiteSpace=wrap;rounded=0;" parent="1" vertex="1">
          <mxGeometry x="-10" y="-530" width="60" height="30" as="geometry" />
        </mxCell>
        <mxCell id="HU2oaPJs9UMQw_kld2Hj-52" value="&lt;b&gt;N&lt;/b&gt;" style="text;html=1;align=center;verticalAlign=middle;whiteSpace=wrap;rounded=0;" parent="1" vertex="1">
          <mxGeometry x="320" y="-460" width="60" height="30" as="geometry" />
        </mxCell>
        <mxCell id="HU2oaPJs9UMQw_kld2Hj-53" value="Item Status (STRING)" style="ellipse;whiteSpace=wrap;html=1;" parent="1" vertex="1">
          <mxGeometry x="-350" y="-560" width="130" height="80" as="geometry" />
        </mxCell>
        <mxCell id="HU2oaPJs9UMQw_kld2Hj-54" value="&lt;b&gt;&quot;Accepted&quot;&lt;/b&gt;" style="ellipse;whiteSpace=wrap;html=1;" parent="1" vertex="1">
          <mxGeometry x="-590" y="-690" width="120" height="80" as="geometry" />
        </mxCell>
        <mxCell id="HU2oaPJs9UMQw_kld2Hj-55" value="&lt;b&gt;&quot;Preparation&quot;&lt;/b&gt;" style="ellipse;whiteSpace=wrap;html=1;" parent="1" vertex="1">
          <mxGeometry x="-600" y="-590" width="120" height="80" as="geometry" />
        </mxCell>
        <mxCell id="HU2oaPJs9UMQw_kld2Hj-56" value="&lt;b&gt;&quot;Deleivered&quot;&lt;/b&gt;" style="ellipse;whiteSpace=wrap;html=1;" parent="1" vertex="1">
          <mxGeometry x="-610" y="-490" width="120" height="80" as="geometry" />
        </mxCell>
        <mxCell id="HU2oaPJs9UMQw_kld2Hj-57" value="&lt;b&gt;&quot;CancelledByUser&quot;&lt;/b&gt;" style="ellipse;whiteSpace=wrap;html=1;" parent="1" vertex="1">
          <mxGeometry x="-610" y="-390" width="120" height="80" as="geometry" />
        </mxCell>
        <mxCell id="HU2oaPJs9UMQw_kld2Hj-58" value="&lt;b&gt;&quot;CancelledByStore&quot;&lt;/b&gt;" style="ellipse;whiteSpace=wrap;html=1;" parent="1" vertex="1">
          <mxGeometry x="-610" y="-290" width="120" height="80" as="geometry" />
        </mxCell>
        <mxCell id="HU2oaPJs9UMQw_kld2Hj-59" value="" style="endArrow=classic;html=1;rounded=0;exitX=1;exitY=0.5;exitDx=0;exitDy=0;entryX=0;entryY=0.5;entryDx=0;entryDy=0;" parent="1" source="HU2oaPJs9UMQw_kld2Hj-53" target="6QipHt0BfIRYhcp03Fun-135" edge="1">
          <mxGeometry width="50" height="50" relative="1" as="geometry">
            <mxPoint x="70" y="-390" as="sourcePoint" />
            <mxPoint x="120" y="-440" as="targetPoint" />
          </mxGeometry>
        </mxCell>
        <mxCell id="HU2oaPJs9UMQw_kld2Hj-60" value="" style="endArrow=classic;html=1;rounded=0;exitX=1;exitY=0.5;exitDx=0;exitDy=0;entryX=0.051;entryY=0.3;entryDx=0;entryDy=0;entryPerimeter=0;" parent="1" source="HU2oaPJs9UMQw_kld2Hj-54" target="HU2oaPJs9UMQw_kld2Hj-53" edge="1">
          <mxGeometry width="50" height="50" relative="1" as="geometry">
            <mxPoint x="70" y="-390" as="sourcePoint" />
            <mxPoint x="120" y="-440" as="targetPoint" />
          </mxGeometry>
        </mxCell>
        <mxCell id="HU2oaPJs9UMQw_kld2Hj-61" value="" style="endArrow=classic;html=1;rounded=0;exitX=1;exitY=1;exitDx=0;exitDy=0;entryX=0;entryY=0.5;entryDx=0;entryDy=0;" parent="1" source="HU2oaPJs9UMQw_kld2Hj-55" target="HU2oaPJs9UMQw_kld2Hj-53" edge="1">
          <mxGeometry width="50" height="50" relative="1" as="geometry">
            <mxPoint x="70" y="-390" as="sourcePoint" />
            <mxPoint x="120" y="-440" as="targetPoint" />
          </mxGeometry>
        </mxCell>
        <mxCell id="HU2oaPJs9UMQw_kld2Hj-62" value="" style="endArrow=classic;html=1;rounded=0;entryX=-0.01;entryY=0.767;entryDx=0;entryDy=0;entryPerimeter=0;" parent="1" source="HU2oaPJs9UMQw_kld2Hj-56" target="HU2oaPJs9UMQw_kld2Hj-53" edge="1">
          <mxGeometry width="50" height="50" relative="1" as="geometry">
            <mxPoint x="70" y="-390" as="sourcePoint" />
            <mxPoint x="120" y="-440" as="targetPoint" />
          </mxGeometry>
        </mxCell>
        <mxCell id="HU2oaPJs9UMQw_kld2Hj-63" value="" style="endArrow=classic;html=1;rounded=0;exitX=1;exitY=0.5;exitDx=0;exitDy=0;entryX=0;entryY=0.5;entryDx=0;entryDy=0;" parent="1" source="HU2oaPJs9UMQw_kld2Hj-57" target="HU2oaPJs9UMQw_kld2Hj-65" edge="1">
          <mxGeometry width="50" height="50" relative="1" as="geometry">
            <mxPoint x="70" y="-390" as="sourcePoint" />
            <mxPoint x="120" y="-440" as="targetPoint" />
          </mxGeometry>
        </mxCell>
        <mxCell id="HU2oaPJs9UMQw_kld2Hj-64" value="" style="endArrow=classic;html=1;rounded=0;exitX=1;exitY=0;exitDx=0;exitDy=0;entryX=0;entryY=1;entryDx=0;entryDy=0;" parent="1" source="HU2oaPJs9UMQw_kld2Hj-58" target="HU2oaPJs9UMQw_kld2Hj-65" edge="1">
          <mxGeometry width="50" height="50" relative="1" as="geometry">
            <mxPoint x="70" y="-390" as="sourcePoint" />
            <mxPoint x="120" y="-440" as="targetPoint" />
          </mxGeometry>
        </mxCell>
        <mxCell id="HU2oaPJs9UMQw_kld2Hj-65" value="CancellationStatus" style="ellipse;whiteSpace=wrap;html=1;" parent="1" vertex="1">
          <mxGeometry x="-300" y="-460" width="120" height="80" as="geometry" />
        </mxCell>
        <mxCell id="HU2oaPJs9UMQw_kld2Hj-66" value="" style="endArrow=classic;html=1;rounded=0;exitX=1;exitY=0;exitDx=0;exitDy=0;entryX=0;entryY=1;entryDx=0;entryDy=0;" parent="1" source="HU2oaPJs9UMQw_kld2Hj-65" target="6QipHt0BfIRYhcp03Fun-135" edge="1">
          <mxGeometry width="50" height="50" relative="1" as="geometry">
            <mxPoint x="90" y="-440" as="sourcePoint" />
            <mxPoint x="140" y="-490" as="targetPoint" />
          </mxGeometry>
        </mxCell>
        <mxCell id="UZVuqt4oKbyZFYLCT11m-1" value="ROLES" style="rounded=1;whiteSpace=wrap;html=1;" vertex="1" parent="1">
          <mxGeometry x="900" y="130" width="120" height="60" as="geometry" />
        </mxCell>
        <mxCell id="UZVuqt4oKbyZFYLCT11m-2" value="RoleId(INT)(PK)" style="ellipse;whiteSpace=wrap;html=1;" vertex="1" parent="1">
          <mxGeometry x="1140" y="220" width="120" height="80" as="geometry" />
        </mxCell>
        <mxCell id="UZVuqt4oKbyZFYLCT11m-3" value="RoleName(String)" style="ellipse;whiteSpace=wrap;html=1;" vertex="1" parent="1">
          <mxGeometry x="1150" y="110" width="120" height="80" as="geometry" />
        </mxCell>
        <mxCell id="UZVuqt4oKbyZFYLCT11m-4" value="" style="endArrow=classic;html=1;rounded=0;exitX=0;exitY=0;exitDx=0;exitDy=0;entryX=1;entryY=1;entryDx=0;entryDy=0;" edge="1" parent="1" source="UZVuqt4oKbyZFYLCT11m-2" target="UZVuqt4oKbyZFYLCT11m-1">
          <mxGeometry width="50" height="50" relative="1" as="geometry">
            <mxPoint x="770" y="100" as="sourcePoint" />
            <mxPoint x="820" y="50" as="targetPoint" />
          </mxGeometry>
        </mxCell>
        <mxCell id="UZVuqt4oKbyZFYLCT11m-6" value="" style="endArrow=classic;html=1;rounded=0;exitX=0;exitY=0.5;exitDx=0;exitDy=0;entryX=1;entryY=0.25;entryDx=0;entryDy=0;" edge="1" parent="1" source="UZVuqt4oKbyZFYLCT11m-3" target="UZVuqt4oKbyZFYLCT11m-1">
          <mxGeometry width="50" height="50" relative="1" as="geometry">
            <mxPoint x="770" y="100" as="sourcePoint" />
            <mxPoint x="820" y="50" as="targetPoint" />
          </mxGeometry>
        </mxCell>
        <mxCell id="UZVuqt4oKbyZFYLCT11m-18" value="RoleMapping" style="rounded=1;whiteSpace=wrap;html=1;" vertex="1" parent="1">
          <mxGeometry x="630" y="190" width="120" height="60" as="geometry" />
        </mxCell>
        <mxCell id="UZVuqt4oKbyZFYLCT11m-19" value="&lt;b&gt;RoleId(FK)(INT)&lt;/b&gt;" style="ellipse;whiteSpace=wrap;html=1;" vertex="1" parent="1">
          <mxGeometry x="580" y="320" width="120" height="80" as="geometry" />
        </mxCell>
        <mxCell id="UZVuqt4oKbyZFYLCT11m-20" value="&lt;b&gt;UserId(FK)(INT)&lt;/b&gt;" style="ellipse;whiteSpace=wrap;html=1;" vertex="1" parent="1">
          <mxGeometry x="790" y="310" width="120" height="80" as="geometry" />
        </mxCell>
        <mxCell id="UZVuqt4oKbyZFYLCT11m-21" value="" style="endArrow=classic;html=1;rounded=0;exitX=0.5;exitY=0;exitDx=0;exitDy=0;entryX=0.25;entryY=1;entryDx=0;entryDy=0;" edge="1" parent="1" source="UZVuqt4oKbyZFYLCT11m-19" target="UZVuqt4oKbyZFYLCT11m-18">
          <mxGeometry width="50" height="50" relative="1" as="geometry">
            <mxPoint x="730" y="50" as="sourcePoint" />
            <mxPoint x="780" as="targetPoint" />
          </mxGeometry>
        </mxCell>
        <mxCell id="UZVuqt4oKbyZFYLCT11m-22" value="" style="endArrow=classic;html=1;rounded=0;exitX=0.5;exitY=0;exitDx=0;exitDy=0;entryX=0.5;entryY=1;entryDx=0;entryDy=0;" edge="1" parent="1" source="UZVuqt4oKbyZFYLCT11m-20" target="UZVuqt4oKbyZFYLCT11m-18">
          <mxGeometry width="50" height="50" relative="1" as="geometry">
            <mxPoint x="730" y="50" as="sourcePoint" />
            <mxPoint x="780" as="targetPoint" />
          </mxGeometry>
        </mxCell>
        <mxCell id="UZVuqt4oKbyZFYLCT11m-24" value="ASSIGNS ROLE" style="rhombus;whiteSpace=wrap;html=1;" vertex="1" parent="1">
          <mxGeometry x="650" y="35" width="80" height="80" as="geometry" />
        </mxCell>
        <mxCell id="UZVuqt4oKbyZFYLCT11m-25" value="" style="endArrow=classic;html=1;rounded=0;exitX=0.5;exitY=0;exitDx=0;exitDy=0;entryX=0.5;entryY=1;entryDx=0;entryDy=0;" edge="1" parent="1" source="UZVuqt4oKbyZFYLCT11m-18" target="UZVuqt4oKbyZFYLCT11m-24">
          <mxGeometry width="50" height="50" relative="1" as="geometry">
            <mxPoint x="730" y="50" as="sourcePoint" />
            <mxPoint x="780" as="targetPoint" />
          </mxGeometry>
        </mxCell>
        <mxCell id="UZVuqt4oKbyZFYLCT11m-26" value="" style="endArrow=classic;html=1;rounded=0;exitX=1;exitY=0.5;exitDx=0;exitDy=0;entryX=0;entryY=0.25;entryDx=0;entryDy=0;" edge="1" parent="1" source="UZVuqt4oKbyZFYLCT11m-24" target="UZVuqt4oKbyZFYLCT11m-1">
          <mxGeometry width="50" height="50" relative="1" as="geometry">
            <mxPoint x="730" y="50" as="sourcePoint" />
            <mxPoint x="780" as="targetPoint" />
          </mxGeometry>
        </mxCell>
        <mxCell id="UZVuqt4oKbyZFYLCT11m-27" value="" style="endArrow=classic;html=1;rounded=0;exitX=0.5;exitY=0;exitDx=0;exitDy=0;entryX=0.391;entryY=1.063;entryDx=0;entryDy=0;entryPerimeter=0;" edge="1" parent="1" source="UZVuqt4oKbyZFYLCT11m-24" target="6QipHt0BfIRYhcp03Fun-10">
          <mxGeometry width="50" height="50" relative="1" as="geometry">
            <mxPoint x="730" y="50" as="sourcePoint" />
            <mxPoint x="780" as="targetPoint" />
          </mxGeometry>
        </mxCell>
        <mxCell id="UZVuqt4oKbyZFYLCT11m-28" value="&lt;b&gt;1&lt;/b&gt;" style="text;html=1;align=center;verticalAlign=middle;whiteSpace=wrap;rounded=0;" vertex="1" parent="1">
          <mxGeometry x="660" y="-135" width="60" height="30" as="geometry" />
        </mxCell>
        <mxCell id="UZVuqt4oKbyZFYLCT11m-29" value="&lt;b&gt;N&lt;/b&gt;" style="text;html=1;align=center;verticalAlign=middle;whiteSpace=wrap;rounded=0;" vertex="1" parent="1">
          <mxGeometry x="830" y="135" width="60" height="30" as="geometry" />
        </mxCell>
        <mxCell id="UZVuqt4oKbyZFYLCT11m-30" value="&lt;b&gt;1&lt;/b&gt;" style="text;html=1;align=center;verticalAlign=middle;whiteSpace=wrap;rounded=0;" vertex="1" parent="1">
          <mxGeometry x="640" y="165" width="60" height="30" as="geometry" />
        </mxCell>
      </root>
    </mxGraphModel>
  </diagram>
</mxfile>
